<mxfile host="app.diagrams.net" modified="2023-10-09T13:19:08.846Z" agent="Mozilla/5.0 (Windows NT 10.0; Win64; x64) AppleWebKit/537.36 (KHTML, like Gecko) Chrome/113.0.0.0 Safari/537.36" etag="_yTjygTCGItiM6v9vKoW" version="21.7.2" type="github">
  <diagram name="Page-1" id="Mdg7Ae6p5UvKACxQ1zR3">
    <mxGraphModel dx="880" dy="484" grid="1" gridSize="10" guides="1" tooltips="1" connect="1" arrows="1" fold="1" page="1" pageScale="1" pageWidth="850" pageHeight="1100" math="0" shadow="0">
      <root>
        <mxCell id="0" />
        <mxCell id="1" parent="0" />
        <mxCell id="4xCfmCJzf_7r0LhuUG6j-3" value="" style="edgeStyle=orthogonalEdgeStyle;rounded=0;orthogonalLoop=1;jettySize=auto;html=1;" edge="1" parent="1" source="4xCfmCJzf_7r0LhuUG6j-1" target="4xCfmCJzf_7r0LhuUG6j-2">
          <mxGeometry relative="1" as="geometry" />
        </mxCell>
        <mxCell id="4xCfmCJzf_7r0LhuUG6j-1" value="&lt;b&gt;Input&lt;/b&gt;:&lt;br&gt;input_df,&lt;br&gt;attributes_map" style="rounded=0;whiteSpace=wrap;html=1;" vertex="1" parent="1">
          <mxGeometry x="40" y="40" width="120" height="60" as="geometry" />
        </mxCell>
        <mxCell id="4xCfmCJzf_7r0LhuUG6j-5" value="" style="edgeStyle=orthogonalEdgeStyle;rounded=0;orthogonalLoop=1;jettySize=auto;html=1;" edge="1" parent="1" source="4xCfmCJzf_7r0LhuUG6j-2" target="4xCfmCJzf_7r0LhuUG6j-4">
          <mxGeometry relative="1" as="geometry" />
        </mxCell>
        <mxCell id="4xCfmCJzf_7r0LhuUG6j-2" value="Define Variable" style="rhombus;whiteSpace=wrap;html=1;rounded=0;" vertex="1" parent="1">
          <mxGeometry x="260" y="30" width="80" height="80" as="geometry" />
        </mxCell>
        <mxCell id="4xCfmCJzf_7r0LhuUG6j-7" value="" style="edgeStyle=orthogonalEdgeStyle;rounded=0;orthogonalLoop=1;jettySize=auto;html=1;" edge="1" parent="1" source="4xCfmCJzf_7r0LhuUG6j-4" target="4xCfmCJzf_7r0LhuUG6j-6">
          <mxGeometry relative="1" as="geometry" />
        </mxCell>
        <mxCell id="4xCfmCJzf_7r0LhuUG6j-4" value="Spark SQL" style="rhombus;whiteSpace=wrap;html=1;rounded=0;" vertex="1" parent="1">
          <mxGeometry x="260" y="190" width="80" height="80" as="geometry" />
        </mxCell>
        <mxCell id="4xCfmCJzf_7r0LhuUG6j-9" value="" style="edgeStyle=orthogonalEdgeStyle;rounded=0;orthogonalLoop=1;jettySize=auto;html=1;" edge="1" parent="1" source="4xCfmCJzf_7r0LhuUG6j-6" target="4xCfmCJzf_7r0LhuUG6j-8">
          <mxGeometry relative="1" as="geometry" />
        </mxCell>
        <mxCell id="4xCfmCJzf_7r0LhuUG6j-6" value="Scala Code" style="rhombus;whiteSpace=wrap;html=1;rounded=0;" vertex="1" parent="1">
          <mxGeometry x="260" y="350" width="80" height="80" as="geometry" />
        </mxCell>
        <mxCell id="4xCfmCJzf_7r0LhuUG6j-8" value="Command Line ARG" style="rhombus;whiteSpace=wrap;html=1;rounded=0;" vertex="1" parent="1">
          <mxGeometry x="260" y="510" width="80" height="80" as="geometry" />
        </mxCell>
      </root>
    </mxGraphModel>
  </diagram>
</mxfile>
